<?xml version="1.0" encoding="utf-8"?>
<!DOCTYPE svg PUBLIC "-//W3C//DTD SVG 1.0//EN" "http://www.w3.org/TR/2001/REC-SVG-20010904/DTD/svg10.dtd">
<svg version="1.0" xmlns="http://www.w3.org/2000/svg" width="30px" height="30px" viewBox="0 0 30 30" preserveAspectRatio="xMidYMid meet">
 <g fill="#2e2e2e" stroke="#2e2e2e" stroke-width="0.059">
  <path d="M4.83 24.79 c-0.37 -0.12 -0.73 -0.44 -0.95 -0.84 -0.09 -0.17 -0.11 -0.41 -0.11 -2.82 0 -2.64 0 -2.64 0.16 -2.91 0.09 -0.15 0.26 -0.36 0.38 -0.46 0.42 -0.37 0.46 -0.38 2.41 -0.40 1.97 -0.02 1.66 0.19 2.94 -2 0.18 -0.30 0.39 -0.67 0.48 -0.82 0.09 -0.15 0.35 -0.59 0.59 -1 0.24 -0.40 0.57 -0.97 0.74 -1.26 0.17 -0.29 0.31 -0.56 0.31 -0.59 0 -0.03 -0.10 -0.11 -0.22 -0.16 -0.33 -0.15 -0.70 -0.54 -0.83 -0.91 -0.12 -0.30 -0.12 -0.42 -0.11 -2.82 0.02 -2.44 0.02 -2.50 0.15 -2.77 0.13 -0.29 0.47 -0.62 0.79 -0.80 0.18 -0.10 0.42 -0.11 3.47 -0.11 3.03 0 3.30 0.01 3.47 0.11 0.32 0.17 0.60 0.46 0.76 0.75 0.14 0.28 0.14 0.28 0.14 2.89 0 2.61 0 2.61 -0.14 2.89 -0.17 0.33 -0.53 0.67 -0.82 0.78 -0.25 0.09 -0.26 0.17 -0.04 0.52 0.09 0.15 0.36 0.60 0.59 1 0.23 0.40 0.50 0.85 0.59 1 0.15 0.25 0.69 1.16 1.32 2.26 0.67 1.15 0.36 1.01 2.38 1.04 1.55 0.02 1.80 0.03 1.98 0.12 0.35 0.17 0.61 0.42 0.79 0.75 0.18 0.32 0.18 0.32 0.18 2.89 0 2.58 0 2.58 -0.18 2.90 -0.20 0.35 -0.64 0.73 -0.92 0.79 -0.09 0.02 -1.60 0.04 -3.35 0.04 -3.18 0 -3.18 0 -3.48 -0.15 -0.32 -0.16 -0.59 -0.45 -0.76 -0.83 -0.09 -0.20 -0.10 -0.47 -0.10 -2.74 0 -2.52 0 -2.52 0.16 -2.82 0.29 -0.56 0.83 -0.87 1.58 -0.94 0.25 -0.02 0.46 -0.05 0.46 -0.06 0 -0.03 -0.64 -1.13 -1 -1.72 -0.09 -0.15 -0.35 -0.59 -0.59 -1 -0.23 -0.40 -0.49 -0.83 -0.56 -0.95 -0.08 -0.12 -0.14 -0.23 -0.14 -0.25 0 -0.02 -0.13 -0.23 -0.29 -0.49 -0.16 -0.26 -0.29 -0.49 -0.30 -0.52 -0.01 -0.03 -0.11 -0.21 -0.22 -0.39 -0.20 -0.33 -0.20 -0.33 -1.48 -0.33 -1.28 0 -1.28 0 -1.55 0.44 -0.15 0.25 -0.27 0.45 -0.27 0.47 0 0.01 -0.13 0.23 -0.29 0.50 -0.16 0.26 -0.29 0.49 -0.29 0.50 0 0.01 -0.11 0.19 -0.24 0.41 -0.13 0.22 -0.29 0.48 -0.35 0.58 -0.11 0.20 -0.54 0.94 -1.01 1.72 -0.52 0.87 -0.59 1.01 -0.56 1.04 0.02 0.02 0.24 0.05 0.50 0.08 0.54 0.06 0.98 0.24 1.21 0.52 0.32 0.38 0.33 0.46 0.32 3.21 0 2.24 -0.01 2.55 -0.10 2.77 -0.13 0.32 -0.47 0.68 -0.79 0.83 -0.25 0.12 -0.32 0.12 -3.47 0.12 -1.77 -0.01 -3.27 -0.02 -3.33 -0.05z"/>
 </g>
</svg>