<svg xmlns="http://www.w3.org/2000/svg" width="400" height="1601" fill="none"><path fill="#000" d="M72 1319.8c0-10.73 7.071-20.18 17.372-23.22l215.823-63.62c15.519-4.57 31.078 7.05 31.078 23.22v28.26c0 11.31-7.824 21.1-18.85 23.61l-109.636 24.94c-9.254 2.1-9.487 15.2-.313 17.63l110.784 29.37a24.21 24.21 0 0 1 18.015 23.4v25.64c0 11-7.423 20.62-18.071 23.41l-109.659 28.79c-9.162 2.41-8.986 15.47.236 17.63l108.792 25.46c10.955 2.56 18.702 12.33 18.702 23.57v28.39c0 16.17-15.559 27.79-31.078 23.22l-215.823-63.62c-10.3-3.04-17.372-12.49-17.372-23.22v-32.72c0-10.59 6.883-19.95 16.994-23.11l104.523-32.67c8.547-2.67 8.479-14.79-.096-17.36l-104.17-31.3C79.01 1372.42 72 1363 72 1352.31zM72 572.638V495.43c0-13.336 10.846-24.147 24.225-24.147h215.823c13.379 0 24.225 10.811 24.225 24.147v76.179q0 40.645-15.872 70.228-15.743 29.712-45.422 45.79-29.55 16.206-70.843 16.206-41.292 0-70.971-16.078-29.55-16.077-45.422-45.532Q72 612.767 72 572.638m85.132-29.84c-13.379 0-24.225 10.81-24.225 24.146v3.122q0 19.55 6.323 33.313 6.323 13.89 21.807 21.094 15.485 7.332 43.099 7.331t43.1-7.46q15.484-7.33 21.807-21.608 6.323-14.15 6.323-34.728v-1.064c0-13.336-10.846-24.146-24.225-24.146zM72 285.858c0-13.363 10.846-24.197 24.225-24.197h215.823c13.379 0 24.225 10.834 24.225 24.197v23.27c0 13.364-10.846 24.197-24.225 24.197H154.035c-13.379 0-24.225 10.834-24.225 24.197v58.328c0 13.364-10.846 24.197-24.225 24.197h-9.36C82.845 440.047 72 429.214 72 415.85zM278.463 24.72c0-13.374 10.846-24.216 24.225-24.216h9.36c13.379 0 24.225 10.842 24.225 24.216v181.174c0 13.374-10.846 24.216-24.225 24.216h-9.36c-13.379 0-24.225-10.842-24.225-24.216v-40.108c0-8.359-6.779-15.135-15.141-15.135H96.225c-13.38 0-24.225-10.842-24.225-24.216v-22.256c0-13.374 10.846-24.216 24.225-24.216h167.097c8.362 0 15.141-6.776 15.141-15.135z"/><path fill="#000" fill-rule="evenodd" d="M89.224 1062.13C78.997 1059.04 72 1049.63 72 1038.96v-25.9c0-16.486 16.145-28.147 31.818-22.979l215.823 71.169a24.19 24.19 0 0 1 16.632 22.98v62.97c0 10.45-6.706 19.71-16.632 22.98l-215.823 71.17C88.145 1246.51 72 1234.86 72 1218.37v-25.9c0-10.67 6.997-20.08 17.224-23.17l22.595-6.81a15.13 15.13 0 0 0 10.765-14.48v-64.59a15.13 15.13 0 0 0-10.765-14.48zm98.672 77.53 49.299-14.39c8.601-2.51 8.755-14.62.22-17.35l-49.299-15.75c-5.861-1.88-11.852 2.49-11.852 8.64v30.14c0 6.05 5.817 10.41 11.632 8.71" clip-rule="evenodd"/><path fill="#000" d="M72 773.439c0-13.367 10.846-24.203 24.225-24.203h215.823c13.379 0 24.225 10.836 24.225 24.203v89.762q0 29.395-10.711 51.439-10.71 22.046-30.84 34.293t-48.261 12.248q-28.388 0-47.873-12.635-18.187-11.672-28.056-32.218c-8.303-17.289-11.301-36.661-11.301-55.705v-43.867c0-77.976 138.26 4.16 86.215 4.16h-8.138c-12.334 0-22.332 9.989-22.332 22.311 0 8.269.351 16.6 3.097 24.487q3.225 9.024 10.194 13.794 6.968 4.899 18.194 4.899 11.356 0 18.453-4.899 7.226-4.77 10.581-13.794c2.815-7.188 3.484-14.944 3.484-22.596 0-13.366-10.846-24.202-24.225-24.202h-48.56c-12.036 0-16.288 11.345-21.122 20.272-6.79 12.539-25.841 7.72-25.841-6.536 0-7.586-6.156-13.736-13.749-13.736H96.225C82.845 820.916 72 810.08 72 796.714zm108.66 137.378-10.128 5.511-62.72 34.131C91.67 959.243 72 947.569 72 929.205V906.52a24.2 24.2 0 0 1 12.719-21.299l66.199-35.696a15.82 15.82 0 0 0 8.313-13.921c0-43.012 83.618 41.371 21.429 75.213"/></svg>